<svg width="48" height="48" viewBox="0 0 48 48" fill="none" xmlns="http://www.w3.org/2000/svg">
<rect width="48" height="48" rx="24" fill="white" fill-opacity="0.34"/>
<path d="M25.5043 26.0278C25.0565 26.3264 24.5363 26.4842 24 26.4842C23.4637 26.4842 22.9436 26.3264 22.4957 26.0278L15.1198 21.1104C15.0789 21.0831 15.0391 21.0547 15 21.0254V29.0831C15 30.007 15.7497 30.7402 16.657 30.7402H31.3429C32.2668 30.7402 33 29.9904 33 29.0831V21.0254C32.9608 21.0547 32.9209 21.0832 32.8799 21.1105L25.5043 26.0278Z" fill="white"/>
<path d="M15.7049 20.2337L23.0808 25.1511C23.36 25.3373 23.68 25.4304 24 25.4304C24.32 25.4304 24.64 25.3373 24.9192 25.1511L32.2951 20.2337C32.7365 19.9396 33 19.4474 33 18.9162C33 18.0028 32.2569 17.2598 31.3435 17.2598H16.6565C15.7431 17.2598 15 18.0029 15 18.9171C15 19.4474 15.2635 19.9396 15.7049 20.2337Z" fill="white"/>
<rect x="0.5" y="0.5" width="47" height="47" rx="23.5" stroke="url(#paint0_linear_172_140)" stroke-opacity="0.9"/>
<defs>
<linearGradient id="paint0_linear_172_140" x1="16" y1="1" x2="42" y2="47" gradientUnits="userSpaceOnUse">
<stop stop-color="white" stop-opacity="0.19"/>
<stop offset="1" stop-color="white" stop-opacity="0"/>
</linearGradient>
</defs>
</svg>
