<svg width="282" height="77" viewBox="0 0 282 77" fill="none" xmlns="http://www.w3.org/2000/svg">
<path d="M279.448 19.448C279.448 20.152 279.235 20.8347 278.808 21.496L252.856 57.944H279.064V63H244.696V60.568C244.696 60.2267 244.749 59.9067 244.856 59.608C244.984 59.3093 245.133 59.0213 245.304 58.744L271.32 22.2H245.912V17.144H279.448V19.448Z" fill="#00A99F"/>
<path fill-rule="evenodd" clip-rule="evenodd" d="M52.8461 62.5749C52.3922 62.5304 51.9403 62.4676 51.4914 62.3868C51.1617 62.3278 50.8535 62.1829 50.5976 61.9668C50.3417 61.7506 50.1473 61.4709 50.0339 61.1558C49.9206 60.8406 49.8922 60.5012 49.9518 60.1716C50.0113 59.842 50.1566 59.5339 50.3731 59.2784C51.4158 58.0491 52.1279 56.5742 52.442 54.9931C52.5005 54.7008 52.3861 54.1874 51.7964 53.613C47.6027 49.5336 45 44.0004 45 37.875C45 25.0904 56.2545 15 69.7812 15C83.308 15 94.5625 25.0904 94.5625 37.875C94.5625 50.6596 83.308 60.75 69.7812 60.75C67.664 60.75 65.6053 60.5035 63.638 60.0409C60.4224 62.0617 56.6251 62.9534 52.8461 62.5749Z" fill="white"/>
<path d="M63 43H73L69.55 38.5L67.25 41.5L65.7 39.5L63 43ZM62 47C61.45 47 60.979 46.804 60.587 46.412C60.195 46.02 59.9993 45.5493 60 45V33C60 32.45 60.196 31.979 60.588 31.587C60.98 31.195 61.4507 30.9993 62 31H74C74.55 31 75.021 31.196 75.413 31.588C75.805 31.98 76.0007 32.4507 76 33V37.5L80 33.5V44.5L76 40.5V45C76 45.55 75.804 46.021 75.412 46.413C75.02 46.805 74.5493 47.0007 74 47H62Z" fill="#00A99F"/>
<path d="M19.68 38.296C21.152 38.296 22.4 38.1147 23.424 37.752C24.4693 37.368 25.3227 36.8453 25.984 36.184C26.6453 35.5227 27.1253 34.7547 27.424 33.88C27.7227 32.984 27.872 32.024 27.872 31C27.872 28.952 27.2 27.352 25.856 26.2C24.5333 25.048 22.4747 24.472 19.68 24.472H15.328V38.296H19.68ZM42.656 63H32.864C31.0507 63 29.7493 62.3173 28.96 60.952L21.216 47.416C20.8533 46.84 20.448 46.424 20 46.168C19.552 45.8907 18.912 45.752 18.08 45.752H15.328V63H4.512V16.376H19.68C23.0507 16.376 25.92 16.728 28.288 17.432C30.6773 18.1147 32.6187 19.0747 34.112 20.312C35.6267 21.5493 36.7253 23.0107 37.408 24.696C38.0907 26.3813 38.432 28.216 38.432 30.2C38.432 31.7147 38.2293 33.144 37.824 34.488C37.4187 35.832 36.8213 37.08 36.032 38.232C35.2427 39.3627 34.2613 40.376 33.088 41.272C31.936 42.168 30.6027 42.904 29.088 43.48C29.792 43.8427 30.4533 44.3013 31.072 44.856C31.6907 45.3893 32.2453 46.0293 32.736 46.776L42.656 63Z" fill="white"/>
<path d="M119.968 54.456C121.419 54.456 122.709 54.2213 123.84 53.752C124.992 53.2613 125.963 52.568 126.752 51.672C127.541 50.776 128.139 49.688 128.544 48.408C128.971 47.1067 129.184 45.6347 129.184 43.992V16.376H140V43.992C140 46.8507 139.531 49.4747 138.592 51.864C137.675 54.2533 136.352 56.312 134.624 58.04C132.896 59.768 130.795 61.112 128.32 62.072C125.845 63.032 123.061 63.512 119.968 63.512C116.853 63.512 114.059 63.032 111.584 62.072C109.109 61.112 107.008 59.768 105.28 58.04C103.552 56.312 102.229 54.2533 101.312 51.864C100.395 49.4747 99.936 46.8507 99.936 43.992V16.376H110.752V43.96C110.752 45.6027 110.955 47.0747 111.36 48.376C111.787 49.656 112.395 50.7547 113.184 51.672C113.973 52.568 114.933 53.2613 116.064 53.752C117.216 54.2213 118.517 54.456 119.968 54.456Z" fill="white"/>
<path d="M189.216 16.376V63H183.584C182.752 63 182.048 62.872 181.472 62.616C180.917 62.3387 180.363 61.8693 179.808 61.208L157.824 33.4C157.909 34.232 157.963 35.0427 157.984 35.832C158.027 36.6 158.048 37.3253 158.048 38.008V63H148.512V16.376H154.208C154.677 16.376 155.072 16.3973 155.392 16.44C155.712 16.4827 156 16.568 156.256 16.696C156.512 16.8027 156.757 16.9627 156.992 17.176C157.227 17.3893 157.493 17.6773 157.792 18.04L179.968 46.04C179.861 45.144 179.787 44.28 179.744 43.448C179.701 42.5947 179.68 41.7947 179.68 41.048V16.376H189.216Z" fill="white"/>
<path d="M240.816 39.672C240.816 43.0427 240.229 46.1573 239.056 49.016C237.904 51.8533 236.272 54.3173 234.16 56.408C232.048 58.4773 229.499 60.0987 226.512 61.272C223.547 62.424 220.251 63 216.624 63H198.512V16.376H216.624C220.251 16.376 223.547 16.9627 226.512 18.136C229.499 19.3093 232.048 20.9307 234.16 23C236.272 25.0693 237.904 27.5333 239.056 30.392C240.229 33.2293 240.816 36.3227 240.816 39.672ZM229.744 39.672C229.744 37.368 229.445 35.288 228.848 33.432C228.251 31.576 227.387 30.008 226.256 28.728C225.147 27.4267 223.781 26.4347 222.16 25.752C220.539 25.048 218.693 24.696 216.624 24.696H209.392V54.68H216.624C218.693 54.68 220.539 54.3387 222.16 53.656C223.781 52.952 225.147 51.96 226.256 50.68C227.387 49.3787 228.251 47.8 228.848 45.944C229.445 44.088 229.744 41.9973 229.744 39.672Z" fill="white"/>
</svg>
