<svg width="60" height="60" viewBox="0 0 60 60" fill="none" xmlns="http://www.w3.org/2000/svg">
<path d="M38.0352 38.5714C40.1052 38.5714 41.7852 40.2514 41.7852 42.3214V46.6114L41.768 46.8429C41.1037 51.4007 37.0109 53.5907 30.143 53.5907C23.3009 53.5907 19.1416 51.4264 18.2437 46.9222L18.2137 46.6072V42.3214C18.2137 40.2514 19.8937 38.5714 21.9637 38.5714H38.0352ZM39.0937 25.7143H51.9637C54.0337 25.7143 55.7137 27.3943 55.7137 29.4643V33.7543L55.6966 33.9857C55.0323 38.5436 50.9394 40.7336 44.0716 40.7336L43.7116 40.7293C43.3812 39.5549 42.6948 38.5118 41.7469 37.7439C40.7989 36.9759 39.6361 36.5209 38.4187 36.4414L38.0352 36.4286H36.0594C37.1792 35.5257 38.0823 34.3833 38.7023 33.0853C39.3224 31.7874 39.6436 30.367 39.6423 28.9286C39.6423 27.8014 39.4494 26.7214 39.0937 25.7143ZM8.03516 25.7143H20.9052C20.5494 26.7214 20.3566 27.8014 20.3566 28.9286C20.3566 31.7786 21.5952 34.3436 23.5623 36.1072L23.9394 36.4286H21.9637C19.2594 36.4286 16.9794 38.25 16.2852 40.7357L16.2144 40.7336C9.3723 40.7336 5.21301 38.5693 4.31516 34.065L4.28516 33.75V29.4643C4.28516 27.3943 5.96516 25.7143 8.03516 25.7143ZM29.9994 21.4286C31.9886 21.4286 33.8962 22.2188 35.3027 23.6253C36.7093 25.0318 37.4994 26.9395 37.4994 28.9286C37.4994 30.9177 36.7093 32.8254 35.3027 34.2319C33.8962 35.6384 31.9886 36.4286 29.9994 36.4286C28.0103 36.4286 26.1027 35.6384 24.6961 34.2319C23.2896 32.8254 22.4994 30.9177 22.4994 28.9286C22.4994 26.9395 23.2896 25.0318 24.6961 23.6253C26.1027 22.2188 28.0103 21.4286 29.9994 21.4286ZM43.928 8.57144C45.9171 8.57144 47.8248 9.36162 49.2313 10.7681C50.6378 12.1747 51.428 14.0823 51.428 16.0714C51.428 18.0606 50.6378 19.9682 49.2313 21.3747C47.8248 22.7813 45.9171 23.5714 43.928 23.5714C41.9389 23.5714 40.0312 22.7813 38.6247 21.3747C37.2182 19.9682 36.428 18.0606 36.428 16.0714C36.428 14.0823 37.2182 12.1747 38.6247 10.7681C40.0312 9.36162 41.9389 8.57144 43.928 8.57144ZM16.0709 8.57144C18.06 8.57144 19.9676 9.36162 21.3742 10.7681C22.7807 12.1747 23.5709 14.0823 23.5709 16.0714C23.5709 18.0606 22.7807 19.9682 21.3742 21.3747C19.9676 22.7813 18.06 23.5714 16.0709 23.5714C14.0817 23.5714 12.1741 22.7813 10.7676 21.3747C9.36105 19.9682 8.57087 18.0606 8.57087 16.0714C8.57087 14.0823 9.36105 12.1747 10.7676 10.7681C12.1741 9.36162 14.0817 8.57144 16.0709 8.57144Z" fill="#FEFEFE"/>
</svg>
