<svg width="60" height="60" viewBox="0 0 60 60" fill="none" xmlns="http://www.w3.org/2000/svg">
<path d="M22.5 35C23.2083 35 23.8025 34.76 24.2825 34.28C24.7608 33.8017 25 33.2083 25 32.5V30C25 29.2917 25.24 28.6975 25.72 28.2175C26.1983 27.7392 26.7917 27.5 27.5 27.5H32.5V29.5C32.5 30.0833 32.75 30.4792 33.25 30.6875C33.75 30.8958 34.2083 30.7917 34.625 30.375L39.125 25.875C39.2083 25.7917 39.3333 25.5 39.5 25C39.5 24.9167 39.375 24.625 39.125 24.125L34.625 19.625C34.2083 19.2083 33.75 19.1042 33.25 19.3125C32.75 19.5208 32.5 19.9167 32.5 20.5V22.5H27.5C25.4167 22.5 23.6458 23.2292 22.1875 24.6875C20.7292 26.1458 20 27.9167 20 30V32.5C20 33.2083 20.24 33.8017 20.72 34.28C21.1983 34.76 21.7917 35 22.5 35ZM10 45C8.625 45 7.44833 44.5108 6.47 43.5325C5.49 42.5525 5 41.375 5 40V12.5C5 11.125 5.49 9.9475 6.47 8.9675C7.44833 7.98917 8.625 7.5 10 7.5H50C51.375 7.5 52.5525 7.98917 53.5325 8.9675C54.5108 9.9475 55 11.125 55 12.5V40C55 41.375 54.5108 42.5525 53.5325 43.5325C52.5525 44.5108 51.375 45 50 45H10ZM5 52.5C4.29167 52.5 3.69833 52.26 3.22 51.78C2.74 51.3017 2.5 50.7083 2.5 50C2.5 49.2917 2.74 48.6983 3.22 48.22C3.69833 47.74 4.29167 47.5 5 47.5H55C55.7083 47.5 56.3017 47.74 56.78 48.22C57.26 48.6983 57.5 49.2917 57.5 50C57.5 50.7083 57.26 51.3017 56.78 51.78C56.3017 52.26 55.7083 52.5 55 52.5H5Z" fill="#FEFEFE"/>
</svg>
