<svg width="60" height="63" viewBox="0 0 60 63" fill="none" xmlns="http://www.w3.org/2000/svg">
<path d="M6.66667 62.2788C4.83333 62.2788 3.26333 61.6695 1.95667 60.4509C0.652222 59.2303 0 57.7636 0 56.0509V12.4558C0 10.7431 0.652222 9.27747 1.95667 8.05888C3.26333 6.83821 4.83333 6.22788 6.66667 6.22788H10V0H16.6667V6.22788H43.3333V0H50V6.22788H53.3333C55.1667 6.22788 56.7367 6.83821 58.0433 8.05888C59.3478 9.27747 60 10.7431 60 12.4558V56.0509C60 57.7636 59.3478 59.2303 58.0433 60.4509C56.7367 61.6695 55.1667 62.2788 53.3333 62.2788H6.66667ZM6.66667 56.0509H53.3333V24.9115H6.66667V56.0509ZM6.66667 18.6836H53.3333V12.4558H6.66667V18.6836ZM30 37.3673C29.0556 37.3673 28.2644 37.0683 27.6267 36.4705C26.9867 35.8747 26.6667 35.1356 26.6667 34.2533C26.6667 33.3711 26.9867 32.631 27.6267 32.0331C28.2644 31.4373 29.0556 31.1394 30 31.1394C30.9444 31.1394 31.7367 31.4373 32.3767 32.0331C33.0144 32.631 33.3333 33.3711 33.3333 34.2533C33.3333 35.1356 33.0144 35.8747 32.3767 36.4705C31.7367 37.0683 30.9444 37.3673 30 37.3673ZM16.6667 37.3673C15.7222 37.3673 14.93 37.0683 14.29 36.4705C13.6522 35.8747 13.3333 35.1356 13.3333 34.2533C13.3333 33.3711 13.6522 32.631 14.29 32.0331C14.93 31.4373 15.7222 31.1394 16.6667 31.1394C17.6111 31.1394 18.4033 31.4373 19.0433 32.0331C19.6811 32.631 20 33.3711 20 34.2533C20 35.1356 19.6811 35.8747 19.0433 36.4705C18.4033 37.0683 17.6111 37.3673 16.6667 37.3673ZM43.3333 37.3673C42.3889 37.3673 41.5978 37.0683 40.96 36.4705C40.32 35.8747 40 35.1356 40 34.2533C40 33.3711 40.32 32.631 40.96 32.0331C41.5978 31.4373 42.3889 31.1394 43.3333 31.1394C44.2778 31.1394 45.0689 31.4373 45.7067 32.0331C46.3467 32.631 46.6667 33.3711 46.6667 34.2533C46.6667 35.1356 46.3467 35.8747 45.7067 36.4705C45.0689 37.0683 44.2778 37.3673 43.3333 37.3673ZM30 49.823C29.0556 49.823 28.2644 49.5241 27.6267 48.9262C26.9867 48.3304 26.6667 47.5914 26.6667 46.7091C26.6667 45.8268 26.9867 45.0878 27.6267 44.492C28.2644 43.8941 29.0556 43.5952 30 43.5952C30.9444 43.5952 31.7367 43.8941 32.3767 44.492C33.0144 45.0878 33.3333 45.8268 33.3333 46.7091C33.3333 47.5914 33.0144 48.3304 32.3767 48.9262C31.7367 49.5241 30.9444 49.823 30 49.823ZM16.6667 49.823C15.7222 49.823 14.93 49.5241 14.29 48.9262C13.6522 48.3304 13.3333 47.5914 13.3333 46.7091C13.3333 45.8268 13.6522 45.0878 14.29 44.492C14.93 43.8941 15.7222 43.5952 16.6667 43.5952C17.6111 43.5952 18.4033 43.8941 19.0433 44.492C19.6811 45.0878 20 45.8268 20 46.7091C20 47.5914 19.6811 48.3304 19.0433 48.9262C18.4033 49.5241 17.6111 49.823 16.6667 49.823ZM43.3333 49.823C42.3889 49.823 41.5978 49.5241 40.96 48.9262C40.32 48.3304 40 47.5914 40 46.7091C40 45.8268 40.32 45.0878 40.96 44.492C41.5978 43.8941 42.3889 43.5952 43.3333 43.5952C44.2778 43.5952 45.0689 43.8941 45.7067 44.492C46.3467 45.0878 46.6667 45.8268 46.6667 46.7091C46.6667 47.5914 46.3467 48.3304 45.7067 48.9262C45.0689 49.5241 44.2778 49.823 43.3333 49.823Z" fill="#FEFEFE"/>
</svg>
