<svg width="60" height="60" viewBox="0 0 60 60" fill="none" xmlns="http://www.w3.org/2000/svg">
<path d="M57.5 25C57.5 23.6739 56.9732 22.4021 56.0355 21.4645C55.0979 20.5268 53.8261 20 52.5 20H36.7L39.1 8.575C39.15 8.325 39.175 8.05 39.175 7.775C39.175 6.75 38.75 5.8 38.075 5.125L35.425 2.5L18.975 18.95C18.05 19.875 17.5 21.125 17.5 22.5V47.5C17.5 48.8261 18.0268 50.0979 18.9645 51.0355C19.9021 51.9732 21.1739 52.5 22.5 52.5H45C47.075 52.5 48.85 51.25 49.6 49.45L57.15 31.825C57.375 31.25 57.5 30.65 57.5 30V25ZM2.5 52.5H12.5V22.5H2.5V52.5Z" fill="#FEFEFE"/>
</svg>
